<svg width="193" height="198" viewBox="0 0 193 198" fill="none" xmlns="http://www.w3.org/2000/svg">
<path fill-rule="evenodd" clip-rule="evenodd" d="M63.0963 6.23934C42.2863 14.0781 24.8101 28.821 13.5295 48.0405C2.24986 67.2582 -2.16228 89.8033 0.993292 111.977C4.14868 134.149 14.6853 154.65 30.8781 170.125C47.0718 185.6 67.9738 195.142 90.1686 197.164C112.365 199.187 134.53 193.567 153.022 181.218C171.514 168.869 185.219 150.534 191.904 129.234C193.144 125.281 190.946 121.072 186.994 119.832C183.042 118.592 178.833 120.79 177.592 124.742C171.926 142.797 160.321 158.307 144.692 168.744C129.063 179.181 110.321 183.938 91.5298 182.226C72.7366 180.513 55.0013 172.43 41.2415 159.281C27.4809 146.13 18.5249 128.704 15.8437 109.863C13.1626 91.0241 16.916 71.9038 26.4658 55.6333C36.0146 39.3645 50.7957 26.9016 68.3838 20.2765C85.9725 13.6511 105.344 13.25 123.327 19.1581C139.021 24.3143 152.843 34.0095 163.095 46.959L138.649 37.3472C136.079 36.3367 133.177 37.6009 132.166 40.1708C131.156 42.7407 132.42 45.6432 134.99 46.6536L169.615 60.2678C179.387 64.1099 189.446 55.3812 187.02 45.1654L184.434 34.2788L178.311 8.49601C177.673 5.80932 174.978 4.14861 172.291 4.7867C169.604 5.42479 167.943 8.12005 168.582 10.8067L174.705 36.5896L175 37.831C162.924 22.504 146.592 11.0129 128.008 4.9075C106.795 -2.06203 83.9057 -1.59921 63.0963 6.23934Z" fill="#00B37E"/>
<path d="M52.7386 137.5L101.892 103.99L100.728 38" stroke="#00B37E" stroke-width="12" stroke-linecap="round" stroke-linejoin="round"/>
</svg>
